# xmcd CD database file
#
# Track frame offsets:
#	150
#	10946
#	27571
#	47901
#	56588
#	67569
#	77801
#	88898
#	102335
#	112704
#	125703
#	137988
#	146205
#	158893
#	173164
#	182751
#	197916
#	211172
#	224399
#	244511
#
# Disc length: 3412 seconds
#
# Revision: 0
# Processed by: cddbd v1.5.2PL0 Copyright (c) Steve Scherf et al.
# Submitted via: CDex 1.70beta2
#
DISCID=220d5214
DTITLE=Various Artist - It's Trad Jazz - Disc 2
DYEAR=1900
DGENRE=Jazz
TTITLE0=Chris Barber - O Sole Mio
TTITLE1=Humphrey Lyttelton - Basin Street Blues
TTITLE2=Ken Colyer - Cheek To Cheek
TTITLE3=The Clyde Valley Stompers - Loch Lomond
TTITLE4=Acker Bilk - In A Persian Market
TTITLE5=Nat Gonella - My Gal Sal
TTITLE6=Chris Barber's Jazz Band - Young Fashioned Ways
TTITLE7=Freddy Randell and His Band - South
TTITLE8=The Joe Daniels Jazz Group - Runnin' Wild
TTITLE9=Freddy Randell and His Band - That's A Plenty
TTITLE10=Acker Bilk - Frankie and Johnnie
TTITLE11=Chris Barber's Jazz Band - Down By The Riverside
TTITLE12=The Joe Daniels Jazz Group - Chicago
TTITLE13=Humphrey Lyttelton - Careless Love Blues
TTITLE14=The Clyde Valley Stompers - Peter And The Wolf (Op. 67)
TTITLE15=Dick Charlesworth - One Sweet Letter From You
TTITLE16=Freddy Randell and His Band - At The Jazz Band Ball
TTITLE17=Chris Barber's Jazz Band - When The Saints Go Marching in (Part One)
TTITLE18=Ken Colyer - Somebody Stole My Girl
TTITLE19=Temperance Seven - Everybody Loves My Baby
EXTD=
EXTT0=
EXTT1=
EXTT2=
EXTT3=
EXTT4=
EXTT5=
EXTT6=
EXTT7=
EXTT8=
EXTT9=
EXTT10=
EXTT11=
EXTT12=
EXTT13=
EXTT14=
EXTT15=
EXTT16=
EXTT17=
EXTT18=
EXTT19=
PLAYORDER=
